<?xml version="1.0"?><svg width="388" height="370.05875" xmlns="http://www.w3.org/2000/svg" xmlns:xlink="http://www.w3.org/1999/xlink">
 <title>book no background</title>
 <defs>
  <linearGradient xlink:href="#linearGradient4839" id="linearGradient5225" x1="0.939897" y1="0.409584" x2="-1.155198" y2="0.409584"/>
  <linearGradient id="linearGradient4748">
   <stop offset="0" id="stop4750" stop-color="#f8f8f8"/>
   <stop id="stop4798" offset="0.833333" stop-color="#c4c4c4"/>
   <stop offset="1" id="stop4752" stop-color="#9b9b9b"/>
  </linearGradient>
  <linearGradient xlink:href="#linearGradient4748" id="linearGradient5223" x1="0.000009" y1="0.500002" x2="1.000018" y2="0.500002"/>
  <linearGradient id="linearGradient4802">
   <stop offset="0" id="stop4806" stop-color="#f2f2f2"/>
   <stop id="stop4808" offset="1" stop-color="#a6a6a6"/>
  </linearGradient>
  <linearGradient xlink:href="#linearGradient4802" id="linearGradient5221" x1="0.999997" y1="0.385667" x2="0.000018" y2="0.38415"/>
  <linearGradient xlink:href="#linearGradient4839" id="linearGradient5219" x1="1.000192" y1="0.422076" x2="0.00002" y2="0.422076"/>
  <linearGradient id="linearGradient4839">
   <stop id="stop4841" offset="0" stop-color="#f8f8f8"/>
   <stop offset="1" id="stop4843" stop-color="#c4c4c4"/>
  </linearGradient>
  <linearGradient xlink:href="#linearGradient4839" id="linearGradient5217" x1="-0.000013" y1="0.500002" x2="0.99997" y2="0.500002"/>
 </defs>
 <metadata id="metadata2753">image/svg+xml</metadata>
 <g>
  <title>Layer 1</title>
  <g id="g5183" transform="rotate(-19.1837, 196.334, 179.604) matrix(0.755128, 0.246094, -0.274844, 0.676141, 436.408, -146.679)" display="inline">
   <path id="path5185" d="m-293.001495,359.485809l167.361153,37.643555l167.361076,-37.643555c8.426514,0 15.210331,6.783783 15.210331,15.210297l0,298.960754c0,8.426514 -6.783817,15.210327 -15.210331,15.210327l-167.361076,37.643677l-167.361153,-37.643677c-8.426514,0 -15.210327,-6.783813 -15.210327,-15.210327l0,-298.960754c0,-8.426514 6.783813,-15.210297 15.210327,-15.210297z" stroke-miterlimit="4" stroke-width="0" stroke="#333333" fill-rule="nonzero" fill="#333333"/>
   <path id="path5187" d="m-167.754974,622.785339c-0.235107,-0.445251 -0.408813,-0.907593 -0.529297,-1.367371c-0.120483,-0.459778 -0.198486,-0.917358 -0.198486,-1.389404c0,0.944092 0.257446,1.866577 0.727783,2.756775z" stroke-miterlimit="4" stroke-width="0" fill-rule="nonzero" fill="#cccccc"/>
   <path id="path5189" d="m-158.139252,629.688293c-1.596802,-0.619141 -3.031982,-1.301025 -4.300659,-2.028992c-1.268677,-0.727966 -2.37085,-1.497314 -3.264038,-2.315674c1.786377,1.635925 4.371216,3.107483 7.564697,4.344666z" stroke-miterlimit="4" stroke-width="0" fill-rule="nonzero" fill="#cccccc"/>
   <path id="path5191" d="m-102.033287,626.314026c-0.61377,0.454773 -1.159546,0.922302 -1.896729,1.345276c-0.865967,0.496887 -1.910889,0.941895 -2.933228,1.389404c1.891846,-0.828552 3.496582,-1.745422 4.829956,-2.73468z" stroke-miterlimit="4" stroke-width="0" fill-rule="nonzero" fill="#cccccc"/>
   <path d="m-199.573944,649.991577a46.544449,18.04785 0 1 1 -93.088928,0a46.544449,18.04785 0 1 1 93.088928,0z" id="path5193" stroke-miterlimit="4" stroke-width="0" fill-rule="nonzero" fill="#666666"/>
   <path id="path5195" d="m-298.804474,679.463257l48.936707,-18.821777l124.223885,56.465332l124.223748,-56.465332l48.936645,18.821777c0,-103.519958 0,-207.039825 0,-310.559662l-48.936645,-18.821808l-124.223748,56.465363l-124.223885,-56.465363l-48.936707,18.821808c0,103.519836 0,207.039642 0,310.559662z" stroke-miterlimit="4" stroke-width="0" fill-rule="nonzero" fill="#e6e6e6"/>
   <path id="path5197" d="m-298.804474,679.463257l173.160591,37.643555l173.160393,-37.643555c0,-103.519958 0,-207.039825 0,-310.559662l-48.936645,-18.821808l-124.223748,56.465363l-124.223885,-56.465363l-48.936707,18.821808c0,103.519836 0,207.039642 0,310.559662z" stroke-miterlimit="4" stroke-width="0" fill-rule="nonzero" fill="#e6e6e6"/>
   <path id="path5199" d="m-298.804474,679.463257l48.936707,-18.821777l124.223885,56.465332l124.223748,-56.465332l48.936645,18.821777c0,-103.519958 0,-207.039825 0,-310.559662l-48.936645,-18.821808l-124.223748,56.465363l-124.223885,-56.465363l-48.936707,18.821808c0,103.519836 0,207.039642 0,310.559662z" stroke-miterlimit="4" stroke-width="0" fill-rule="nonzero" fill="#e6e6e6"/>
   <path id="path5201" d="m-298.804047,679.463135l48.935974,-18.822021l0,-310.559357l-48.935974,18.821808c0,103.519867 0,207.039551 0,310.55957l0,0z" stroke-miterlimit="4" stroke-width="0" fill-rule="nonzero" fill="url(#linearGradient5217)"/>
   <path id="path5203" d="m-1.420074,660.641113l48.937011,18.822021c0,-103.52002 0,-207.039703 0,-310.55957l-48.937011,-18.821808l0,310.559357l0,0z" stroke-miterlimit="4" stroke-width="0" fill-rule="nonzero" fill="url(#linearGradient5219)"/>
   <path id="path5205" d="m-249.867767,660.641479c0,0 40.466797,4.705444 71.522827,18.821777c31.055908,14.116333 52.701057,37.643555 52.701057,37.643555c0,0 21.64502,-23.527222 52.70092,-37.643555c31.05603,-14.116333 71.522828,-18.821777 71.522828,-18.821777l0,-310.559662c0,0 -40.466798,4.705414 -71.522828,18.821777c-31.055901,14.116333 -52.70092,37.643555 -52.70092,37.643555c0,0 -21.645149,-23.527222 -52.701057,-37.643555c-31.05603,-14.116364 -71.522827,-18.821777 -71.522827,-18.821777l0,310.559662z" stroke-miterlimit="4" stroke-width="0" fill-rule="nonzero" fill="#e6e6e6"/>
   <path id="path5207" d="m-125.649864,406.545807l0,310.559662c0,0 21.64502,-23.527222 52.701042,-37.643677c31.055908,-14.116333 71.522828,-18.821777 71.522828,-18.821777l0,-310.559601c0,0 -40.46692,4.705444 -71.522828,18.821808c-31.056023,14.116333 -52.701042,37.643585 -52.701042,37.643585z" stroke-miterlimit="4" stroke-width="0" fill-rule="nonzero" fill="url(#linearGradient5221)"/>
   <path id="path5209" d="m-249.873749,350.080414l0,310.559601c0,0 40.466919,4.705444 71.522827,18.821777c31.05603,14.116455 52.701057,37.643677 52.701057,37.643677l0,-310.559662c0,0 -21.645027,-23.527252 -52.701057,-37.643585c-31.055908,-14.116364 -71.522827,-18.821808 -71.522827,-18.821808z" stroke-miterlimit="4" stroke-width="0" fill-rule="nonzero" fill="url(#linearGradient5223)"/>
   <path id="path5211" d="m-249.873749,660.641479l-48.936707,18.821777l173.160591,37.643555c0,0 -1.367554,-1.455688 -3.881966,-3.881958c-2.514526,-2.42627 -6.175903,-5.822998 -10.822632,-9.64624c-2.323242,-1.911499 -4.890991,-3.931519 -7.675659,-5.99939c-2.784668,-2.067871 -5.771606,-4.168701 -8.969849,-6.26416c-3.198242,-2.095337 -6.61145,-4.181519 -10.175537,-6.175903c-3.563965,-1.994263 -7.293457,-3.911377 -11.175415,-5.675903c-3.881958,-1.764526 -7.920166,-3.372925 -11.998901,-4.852539c-4.078613,-1.479614 -8.212524,-2.815918 -12.292969,-4.029053c-4.080566,-1.213135 -8.111328,-2.299438 -11.998901,-3.264404c-3.887451,-0.964966 -7.616943,-1.823364 -11.116577,-2.558594c-6.99939,-1.470459 -13.01355,-2.484985 -17.292603,-3.146729c-4.278931,-0.661743 -6.822876,-0.970459 -6.822876,-0.970459z" stroke-miterlimit="4" stroke-width="0" fill-rule="nonzero" fill="#b3b3b3"/>
   <path id="path5213" d="m-125.649864,717.106812l173.160515,-37.643555l-48.936645,-18.821777c0,0 -2.543945,0.308716 -6.822875,0.970459c-4.279053,0.661743 -10.293213,1.67627 -17.292604,3.146729c-3.499634,0.735229 -7.229126,1.593628 -11.116577,2.558594c-3.887573,0.964966 -7.918457,2.05127 -11.998901,3.264404c-4.080566,1.213135 -8.214355,2.549438 -12.292969,4.029053c-4.078735,1.479614 -8.116943,3.088013 -11.998901,4.852539c-3.882072,1.764526 -7.611443,3.681641 -11.175407,5.675903c-3.564087,1.994385 -6.977295,4.080566 -10.175537,6.175903c-3.198242,2.095459 -6.185181,4.196289 -8.969849,6.26416c-2.784668,2.067871 -5.352417,4.087891 -7.675781,5.99939c-4.646606,3.823242 -8.307983,7.219971 -10.82251,9.64624c-2.514404,2.42627 -3.881958,3.881958 -3.881958,3.881958z" stroke-miterlimit="4" stroke-width="0" fill-rule="nonzero" fill="#b3b3b3"/>
   <path id="path5215" d="m-125.649864,406.545807l0,310.559662c0,0 6.64502,-38.527222 32.70105,-57.643677c26.055901,-19.116333 71.52282,-18.821777 71.52282,-18.821777l0,-310.559601c0,0 -45.466919,-0.294556 -71.52282,18.821838c-26.05603,19.116302 -32.70105,57.643555 -32.70105,57.643555z" stroke-miterlimit="4" stroke-width="0" fill-rule="nonzero" fill="url(#linearGradient5225)"/>
  </g>
  <rect fill="#ffff00" stroke="#000000" stroke-width="5" x="35" y="28.941254" width="1" height="0" id="svg_1"/>
 </g>
</svg>